<?xml version="1.0" encoding="utf-8"?>
<!-- Generator: Adobe Illustrator 25.0.0, SVG Export Plug-In . SVG Version: 6.00 Build 0)  -->
<svg version="1.1" id="katman_1" xmlns="http://www.w3.org/2000/svg" xmlns:xlink="http://www.w3.org/1999/xlink" x="0px" y="0px"
	 viewBox="0 0 4066 2762.7" style="enable-background:new 0 0 4066 2762.7;" xml:space="preserve">
<style type="text/css">
	.st0{fill:#6762A6;}
	.st1{fill:#FFFFFF;}
</style>
<path class="st0" d="M1408.5,2620.6v-217.4c0-15.3-11.2-21.9-24.5-21.9c-26.5,0-59.7,6.6-89.8,19.9v219.4H1233V2217h61.2v133.2
	c29.1-10.7,63.8-19.9,98.5-19.9c55.6,0,76.5,34.2,76.5,81.1v209.2L1408.5,2620.6L1408.5,2620.6z M1583.5,2489
	c2,73,16.3,87.3,61.2,87.3c35.2,0,75-11.7,105.6-23.5l10.2,45.9c-32.7,14.8-72.5,29.1-119.9,29.1c-102.1,0-117.9-56.1-117.9-145.4
	c0-49,3.6-93.4,15.3-134.2c30.6-11.7,71.4-17.9,123-17.9c83.7,0,109.2,46.4,109.2,127.6v31.1L1583.5,2489L1583.5,2489z
	 M1661.1,2381.3c-18.3,0-47.4,0.5-71.4,5.1c-2.5,12.3-5.6,29.1-6.6,60.2h127.6C1710.6,2404.3,1702.9,2381.3,1661.1,2381.3
	L1661.1,2381.3z M1885,2401.2v219.4h-61.2v-247c51.5-28.1,106.1-36.7,141.9-39.3v51C1940.7,2387.5,1909,2390.5,1885,2401.2
	L1885,2401.2z M2127.4,2627.8c-91.4,0-132.7-44.9-132.7-147.5c0-108.7,54.6-150,132.7-150c91.3,0,132.7,44.9,132.7,147.4
	C2260.1,2586.5,2205.4,2627.8,2127.4,2627.8L2127.4,2627.8z M2127.4,2381.3c-46.9,0-73,27-73,99c0,78.6,21.9,95.9,73,95.9
	c46.9,0,73-26.5,73-98.5C2200.4,2399.2,2178.4,2381.3,2127.4,2381.3L2127.4,2381.3z M2555.5,2620.6h-72
	c-16.8-44.9-40.3-90.8-76.5-130.6h-32.1v130.6h-61.2V2217h61.2v231.6h28.6c31.1-32.2,55.1-71.9,71.9-111.2h68.9
	c-23.5,47.5-53.6,89.3-87.2,123.5C2497.3,2512,2528.9,2566,2555.5,2620.6L2555.5,2620.6z M2670.2,2627.8
	c-55.6,0-76.5-34.2-76.5-81.1v-209.2h60.7v216.9c0,15.3,11.2,21.9,24.5,21.9c26.5,0,62.8-6.6,92.9-19.9v-218.9h61.2v245.9
	C2760.5,2623.2,2704.9,2627.8,2670.2,2627.8z M2643.2,2114.2H1422.1c-104.5,0-189.1-84.7-189.1-189.1V320.4
	c0-104.4,84.7-189.1,189.1-189.1h1221.1c104.4,0,189.1,84.7,189.1,189.1v1604.6C2832.3,2029.5,2747.6,2114.2,2643.2,2114.2
	L2643.2,2114.2z"/>
<path class="st1" d="M2235.3,1841.3v-787.4c0,0,51.2-188.4-630.9,77.1c-1.3,3.4-1.3-728.1-1.3-728.1l222.9-1.4v468.7
	c0,0,624-245.8,624,186.4v784.8H2235.3L2235.3,1841.3z M2362.3,685.1h-236.4c85.1-104,162.1-282.3,162.1-282.3h244.4
	C2532.4,402.8,2490.6,519,2362.3,685.1L2362.3,685.1z M1607.2,1840v-448.4l224.2,224.2L1607.2,1840L1607.2,1840z"/>
</svg>
