<?xml version="1.0" encoding="utf-8"?>
<!-- Generator: Adobe Illustrator 25.0.1, SVG Export Plug-In . SVG Version: 6.00 Build 0)  -->
<svg version="1.0" id="" xmlns="http://www.w3.org/2000/svg" xmlns:xlink="http://www.w3.org/1999/xlink" x="0px" y="0px"
	 viewBox="0 0 940 544" style="enable-background:new 0 0 940 544;" xml:space="preserve">
<style type="text/css">
	.st0{fill:none;}
</style>
<path fill="white" d="M470.8,230.7c-28.5,0-49,18.6-49,46.5s23.1,46.5,51.6,46.5c17.2,0,32.4-6.8,41.8-18.3l-19.7-11.4c-5.2,5.7-13.1,9-22,9
	c-12.4,0-22.9-6.5-26.8-16.8H519c0.6-3,0.9-6,0.9-9C519.9,249.3,499.4,230.7,470.8,230.7z M446.4,268.1
	c3.2-10.3,12.1-16.8,24.4-16.8s21.2,6.5,24.4,16.8H446.4z M440.6,202.3l-71.5,123.9l-71.5-123.9h26.8l44.7,77.4l44.7-77.4H440.6z
	 M198.9,189.4l95.4,165.2H103.5L198.9,189.4z M623.6,277.2c0,15.5,10.1,25.8,25.8,25.8c10.6,0,18.6-4.8,22.7-12.7l19.9,11.4
	c-8.2,13.7-23.6,21.9-42.5,21.9c-28.5,0-49-18.6-49-46.5s20.5-46.5,49-46.5c18.9,0,34.3,8.2,42.5,21.9l-19.8,11.4
	c-4.1-7.9-12.1-12.7-22.7-12.7C633.8,251.4,623.6,261.7,623.6,277.2z M836.5,202.3V321h-23.2V202.3H836.5z M748.8,230.7
	c-28.5,0-49,18.6-49,46.5s23.1,46.5,51.6,46.5c17.2,0,32.4-6.8,41.8-18.3l-19.7-11.4c-5.2,5.7-13.1,9-22,9
	c-12.4,0-22.9-6.5-26.8-16.8H797c0.6-3,0.9-6,0.9-9C797.8,249.3,777.3,230.7,748.8,230.7z M724.4,268.1c3.2-10.3,12-16.8,24.4-16.8
	s21.2,6.5,24.4,16.8H724.4z M592.7,233.3v25c-2.7-0.8-5.5-1.2-8.3-1.3c-15,0-25.8,10.3-25.8,25.8V321h-23.2v-87.7h23.2V257
	C558.6,243.9,573.8,233.3,592.7,233.3z"/>
<rect x="80" y="168" class="st0" width="780" height="208"/>
</svg>
